PathFileType	4	(X/Y/Z)	C:\Users\Basilio\Documents\Thesis Gigler\squatting_fais\c3dfiles\040\SLS_pre_front2\markers_experimental.trc
DataRate	CameraRate	NumFrames	NumMarkers	Units	OrigDataRate	OrigDataStartFrame	OrigNumFrames
200.000000	200.000000	4	62	mm	200.000000	367	1471
Frame#	Time	FHD			LBHD			RBHD			C7			T10			CLAV			LSHO			LUUPA			LMUPA			LDUPA			LLEP			LMEP			LRAD			LUL			LRFIN			RSHO			RUPA1			RMUPA			RDUPA			RLEP			RMEP			RRAD			RUL			RUFIN			LASI			RASI			USACR			LSACR			RSACR			LTHI1			LTHI2			LTHI3			LTHI4			LLFC			LMFC			LTIB1			LTIB2			LTIB3			LTIB4			LLMAL			LMMAL			LHEE			LMT1			LMT2			LMT5			RTHI			RTHI2			RTHI3			RTHI4			RLFC			RMFC			RTIB1			RTIB2			RTIB3			RTIB4			RLMAL			RMMAL			RHEE			RMT1			RMT2			RMT5			*61			
		X1	Y1	Z1	X2	Y2	Z2	X3	Y3	Z3	X4	Y4	Z4	X5	Y5	Z5	X6	Y6	Z6	X7	Y7	Z7	X8	Y8	Z8	X9	Y9	Z9	X10	Y10	Z10	X11	Y11	Z11	X12	Y12	Z12	X13	Y13	Z13	X14	Y14	Z14	X15	Y15	Z15	X16	Y16	Z16	X17	Y17	Z17	X18	Y18	Z18	X19	Y19	Z19	X20	Y20	Z20	X21	Y21	Z21	X22	Y22	Z22	X23	Y23	Z23	X24	Y24	Z24	X25	Y25	Z25	X26	Y26	Z26	X27	Y27	Z27	X28	Y28	Z28	X29	Y29	Z29	X30	Y30	Z30	X31	Y31	Z31	X32	Y32	Z32	X33	Y33	Z33	X34	Y34	Z34	X35	Y35	Z35	X36	Y36	Z36	X37	Y37	Z37	X38	Y38	Z38	X39	Y39	Z39	X40	Y40	Z40	X41	Y41	Z41	X42	Y42	Z42	X43	Y43	Z43	X44	Y44	Z44	X45	Y45	Z45	X46	Y46	Z46	X47	Y47	Z47	X48	Y48	Z48	X49	Y49	Z49	X50	Y50	Z50	X51	Y51	Z51	X52	Y52	Z52	X53	Y53	Z53	X54	Y54	Z54	X55	Y55	Z55	X56	Y56	Z56	X57	Y57	Z57	X58	Y58	Z58	X59	Y59	Z59	X60	Y60	Z60	X61	Y61	Z61	X62	Y62	Z62	

368	1.835	-228.0797729492188	1765.224243164063	-1132.474975585938	-353.3958740234376	1720.008178710938	-1176.62646484375	-409.6358642578126	1681.849243164063	-1046.372802734375	-429.0571899414064	1556.698120117188	-1097.716796875	-450.3052673339845	1237.083862304688	-1082.89501953125	-294.1595764160157	1493.698486328125	-1098.21044921875	-346.9775695800782	1537.454833984375	-1254.037353515625	-208.436019897461	1434.034545898438	-1340.640991210938	-170.6885528564453	1439.936401367188	-1308.22265625	-147.1079559326172	1402.347778320313	-1349.15966796875	-100.8010482788086	1359.57470703125	-1353.616821289063	-125.6474533081055	1306.370849609375	-1320.557250976563	152.3590698242188	1299.281494140625	-1221.979858398438	164.6901397705078	1297.869140625	-1296.660278320313	248.3131256103516	1284.448364257813	-1218.904052734375	-333.3450317382813	1520.744873046875	-944.267517089844	-216.3696441650391	1389.480102539063	-848.1597900390627	-176.5669097900391	1397.348999023438	-875.2860107421877	-158.0083770751953	1351.6240234375	-841.3417968750002	-102.3672714233399	1317.552368164063	-845.8774414062502	-130.6026153564453	1262.24560546875	-891.0036621093752	144.3800964355469	1289.32373046875	-1009.111450195313	156.9292907714844	1262.567626953125	-936.7153930664065	238.9606018066407	1275.730590820313	-1014.860961914063	-260.4944458007813	1073.723876953125	-1187.7783203125	-256.9640502929688	1080.697387695313	-958.1411132812502	-446.7238159179689	1094.573486328125	-1064.123046875	-450.7511596679689	1064.36279296875	-1090.771484375	-449.8811035156251	1064.654174804688	-1034.418823242188	-346.8486022949219	801.7285156250002	-1223.809936523438	-297.1294860839844	733.4046630859376	-1228.733032226563	-253.3141174316407	744.3956298828126	-1237.338745117188	-308.9078674316407	678.0749511718751	-1210.961059570313	-271.5478515625001	548.8682250976564	-1196.991088867188	-256.8617858886719	538.6655883789064	-1066.803588867188	-248.010726928711	324.2000122070313	-1138.753051757813	-326.1306762695313	292.4714050292969	-1167.279296875	-284.6005554199219	281.2940368652344	-1156.894653320313	-282.1970520019532	205.4909057617188	-1114.916748046875	-356.1532897949219	124.8441543579102	-1110.93212890625	-314.7030639648438	143.9169464111328	-1035.94287109375	-413.750946044922	97.07621002197268	-1050.902099609375	-199.4626617431641	59.16933441162111	-1052.862182617188	-205.5517883300782	50.2423667907715	-1098.386474609375	-261.9186096191407	34.7556381225586	-1138.706665039063	-226.8657226562501	820.4983520507815	-877.2684326171877	-173.1589965820313	781.764099121094	-882.861511230469	-144.3555450439453	795.0301513671877	-893.0527954101565	-171.90283203125	698.8538208007814	-894.785827636719	-111.561767578125	577.9727172851564	-906.8935546875002	-103.3891677856446	575.2601928710939	-1041.070922851563	13.88647937774659	432.7909545898439	-928.6489257812502	-17.92305755615235	330.5206909179688	-908.3569946289065	25.02986907958985	347.6356201171876	-915.832458496094	62.51426315307619	315.0451354980469	-948.2773437500002	67.54061889648439	186.0826416015625	-929.627380371094	80.74736785888673	214.1078033447266	-1015.328979492188	36.83153915405274	119.3673477172852	-990.0374145507815	236.0027313232422	221.2434387207032	-988.7766723632815	229.6971740722657	219.6063079833985	-949.3427734375002	204.6182403564454	173.0536651611328	-902.2795410156252	nan	nan	nan	
369	1.84	-228.438949584961	1765.226806640625	-1132.567993164063	-353.9741210937501	1719.943115234375	-1176.731689453125	-410.459197998047	1682.053100585938	-1046.429077148438	-429.5373535156251	1556.717163085938	-1097.685546875	-450.6043395996095	1236.99755859375	-1082.880615234375	-294.6772460937501	1493.8212890625	-1098.245239257813	-347.4700317382813	1537.629028320313	-1253.96044921875	-208.3996124267579	1435.541015625	-1340.294067382813	-170.8724822998047	1441.802490234375	-1308.014892578125	-146.7364044189453	1404.554077148438	-1348.595458984375	-100.2843093872071	1362.232055664063	-1353.042358398438	-124.4557800292969	1308.7119140625	-1319.779296875	153.7842254638672	1305.07177734375	-1220.112548828125	165.569564819336	1303.604858398438	-1294.777587890625	249.232162475586	1290.919311523438	-1216.693237304688	-333.8890380859376	1521.14208984375	-944.6044921875002	-215.5786285400391	1391.120849609375	-848.8652954101565	-176.0199890136719	1399.216186523438	-875.9837036132815	-156.8148193359375	1353.834350585938	-842.2460937500002	-100.7635574340821	1320.006469726563	-846.9134521484377	-128.6744232177735	1264.713256835938	-892.098083496094	145.7303009033203	1294.875244140625	-1010.168518066406	158.5694580078125	1267.678100585938	-938.0408325195315	240.4359893798829	1282.19775390625	-1015.984375	-260.5770874023438	1073.575927734375	-1187.818359375	-257.1214599609376	1080.742553710938	-958.369812011719	-446.8905334472657	1094.847045898438	-1064.008911132813	-451.1021728515626	1064.338745117188	-1090.70068359375	-449.9239501953126	1064.549560546875	-1034.313232421875	-346.9699096679688	801.4036254882815	-1223.783813476563	-297.2771606445313	733.3717651367189	-1228.859008789063	-253.5258178710938	744.4489135742189	-1237.662231445313	-309.0366210937501	678.0990600585939	-1211.092651367188	-271.3636779785157	548.8787841796876	-1197.202026367188	-256.3254089355469	538.6784057617189	-1067.144287109375	-247.7758789062501	323.9873352050782	-1139.066162109375	-326.1878051757813	292.5429687500001	-1167.491943359375	-284.6217651367188	281.3290405273438	-1156.97998046875	-282.1454772949219	205.4894561767579	-1115.208862304688	-356.1636352539063	124.9242172241211	-1110.98828125	-314.6636962890626	143.9183044433594	-1036.105102539063	-414.0188598632814	97.58747863769534	-1050.875854492188	-199.4898681640626	59.31242752075197	-1052.932250976563	-205.6392822265626	50.13784790039064	-1098.422485351563	-261.9633483886719	34.72565841674805	-1138.709838867188	-226.1646118164063	821.021423339844	-877.3068847656252	-172.3873291015625	781.9627685546877	-883.4427490234377	-143.8039093017578	795.4140625000002	-893.6069335937502	-170.8635406494141	699.4260864257814	-894.6318359375002	-110.1612777709961	578.9573974609376	-906.5808715820315	-101.6734237670899	575.8338012695314	-1040.989868164063	15.59916591644287	434.2597045898439	-928.270935058594	-16.25319290161133	331.4580383300782	-908.0554199218752	26.47271156311036	348.7046203613282	-915.3972778320315	64.02669525146486	316.1028442382813	-947.8569335937502	70.10913085937501	187.4970397949219	-929.1245727539065	82.51887512207033	214.9649353027344	-1014.898681640625	38.91188049316407	120.3848419189453	-989.4172363281252	237.7567443847657	222.9395904541016	-988.8267822265627	232.1348114013672	220.5783691406251	-949.246520996094	206.4306945800782	174.5215454101563	-901.8602294921877	nan	nan	nan	
370	1.845	-229.2321929931641	1765.299072265625	-1132.762329101563	-354.5841979980469	1719.904052734375	-1176.845581054688	-411.2224731445314	1682.164306640625	-1046.457397460938	-429.437225341797	1556.040161132813	-1097.8193359375	-450.895721435547	1236.995849609375	-1082.896850585938	-295.2731018066407	1493.888549804688	-1098.396606445313	-348.2074584960938	1537.83984375	-1253.8408203125	-208.5613403320313	1437.569702148438	-1339.802001953125	-171.0767364501953	1444.112060546875	-1307.513305664063	-146.4020233154297	1406.790283203125	-1347.968505859375	-99.02452087402347	1364.439208984375	-1352.315063476563	-123.506591796875	1311.247192382813	-1319.148193359375	154.3849487304688	1309.469604492188	-1218.381225585938	166.7842864990235	1309.06591796875	-1293.08837890625	249.9707946777344	1297.094970703125	-1214.307006835938	-334.5414733886719	1521.524291992188	-944.9324951171877	-214.8001708984376	1392.861450195313	-849.6776123046877	-175.6643829345703	1401.116455078125	-876.754821777344	-155.8009185791016	1355.747314453125	-843.1387329101565	-99.67557525634768	1323.13232421875	-847.835632324219	-127.0529327392578	1267.567504882813	-892.7838134765627	147.5740814208985	1300.231689453125	-1011.383361816406	160.2308807373047	1272.516845703125	-939.6146240234377	242.0074768066407	1288.269653320313	-1017.245910644531	-260.9076843261719	1073.481811523438	-1187.916015625	-257.2261657714844	1080.771606445313	-958.5396728515627	-447.1542968750001	1094.836303710938	-1063.901000976563	-451.2769165039064	1064.248901367188	-1090.4970703125	-450.111785888672	1064.484375	-1034.222534179688	-347.1312866210938	801.3323364257815	-1223.833862304688	-297.3632812500001	733.3413085937501	-1229.015747070313	-253.5264282226563	744.4199218750001	-1238.388427734375	-309.0398864746094	678.0211181640626	-1211.234375	-271.2792968750001	548.8682250976564	-1197.436645507813	-256.1579895019532	538.7108764648439	-1067.387939453125	-247.9709625244141	323.3229064941407	-1138.298828125	-326.2148132324219	292.6567687988282	-1167.516235351563	-284.5983276367188	281.3499450683594	-1157.1806640625	-281.9997253417969	205.5420684814454	-1115.47705078125	-356.4095764160157	125.0168151855469	-1111.224243164063	-314.4876098632813	144.1116943359375	-1036.303833007813	-414.0201110839845	97.6375427246094	-1050.911499023438	-198.9861145019532	59.02709197998048	-1053.095336914063	-205.5273590087891	50.19553375244142	-1098.49560546875	-261.9518127441407	34.69997787475587	-1138.7685546875	-225.9547424316407	821.1890869140627	-877.2473754882815	-171.6831512451172	782.4875488281252	-883.7232055664065	-143.1856536865235	796.1860961914065	-893.7303466796877	-169.8760375976563	700.1271972656251	-894.2614746093752	-109.1223068237305	579.6956176757814	-906.370300292969	-100.569808959961	576.3702392578126	-1041.032104492188	17.08255386352539	435.0200805664064	-928.091247558594	-14.16385555267334	332.0441894531251	-907.6831054687502	27.73059272766114	348.8560485839844	-915.9027099609377	65.95335388183595	317.4673156738282	-946.9780883789065	71.1952362060547	188.3026885986328	-928.6167602539065	84.38380432128908	215.9694976806641	-1014.472045898438	40.5918197631836	120.5030593872071	-988.9907836914065	240.1199035644532	223.2344512939454	-988.5090332031252	233.5891876220704	221.8373718261719	-949.2798461914065	208.9301300048829	175.2352905273438	-901.878845214844	nan	nan	nan	
371	1.85	-230.1037902832032	1765.3505859375	-1132.856811523438	-355.3065185546876	1719.9111328125	-1176.975219726563	-411.6837463378907	1682.17822265625	-1046.48095703125	-430.8667602539064	1556.614990234375	-1097.765502929688	-451.2242736816407	1236.863647460938	-1082.860229492188	-295.8599548339844	1493.847778320313	-1098.48291015625	-348.8640747070313	1538.10205078125	-1253.69580078125	-208.4786987304688	1439.341186523438	-1339.432373046875	-171.6080169677735	1446.052612304688	-1306.3896484375	-146.1072692871094	1409.0810546875	-1347.513061523438	-98.8061447143555	1367.233642578125	-1351.600463867188	-122.4388504028321	1313.6923828125	-1318.411987304688	154.8659210205078	1314.536254882813	-1216.793823242188	168.5506591796875	1314.149291992188	-1291.331420898438	250.9862213134766	1303.16943359375	-1211.891357421875	-335.1337890625001	1521.781127929688	-945.155700683594	-214.164291381836	1394.7177734375	-850.1815185546877	-175.3784790039063	1403.412841796875	-877.5671997070315	-155.06494140625	1357.770263671875	-843.8409423828127	-98.02362823486331	1325.562622070313	-848.7207641601565	-125.0790100097657	1269.827880859375	-893.9916992187502	148.8971557617188	1305.580200195313	-1012.539794921875	162.2168884277344	1277.610229492188	-940.9107666015627	243.3704528808594	1294.580322265625	-1018.383361816406	-261.2977600097657	1073.430541992188	-1188.003540039063	-257.3414611816407	1080.847412109375	-958.7545166015627	-447.420379638672	1094.723388671875	-1063.807739257813	-451.5534057617189	1064.126586914063	-1090.409912109375	-450.2921752929689	1064.313598632813	-1034.115234375	-347.2318420410157	801.1550292968752	-1223.90234375	-297.5528869628907	733.2937622070314	-1229.192260742188	-253.8870697021485	744.4537353515626	-1238.238647460938	-309.0778503417969	677.9042968750001	-1211.381225585938	-271.1491394042969	548.8861083984376	-1197.677001953125	-255.7145690917969	538.6960449218751	-1067.966064453125	-247.9485931396485	323.3251037597657	-1138.478393554688	-326.0942687988282	292.6959228515626	-1167.595703125	-284.6123352050782	281.2810058593751	-1157.364379882813	-281.9975585937501	205.7438507080079	-1115.656860351563	-356.2756347656251	124.9886016845703	-1111.288696289063	-314.4265441894532	144.3322296142578	-1036.419067382813	-413.9867248535157	97.67472076416018	-1050.994140625	-199.0072937011719	58.98344802856447	-1053.113159179688	-205.5489501953126	50.16309738159181	-1098.559814453125	-261.8042602539063	34.61738586425782	-1138.828002929688	-225.3394165039063	821.6379394531252	-877.214050292969	-170.6744537353516	783.2877197265627	-883.1887817382815	-142.7511749267578	796.9981689453127	-893.5032958984377	-168.9336090087891	700.6795654296876	-894.1633911132815	-107.7422256469727	580.2899780273439	-906.319274902344	-99.4716491699219	576.8473510742189	-1040.865844726563	18.6383056640625	435.4980468750001	-927.8334960937502	-12.83607959747315	333.3200988769532	-907.1055908203127	29.88612174987794	350.6095275878907	-914.7862548828127	67.05689239501955	318.1365051269532	-947.2105712890627	73.75148773193361	189.4593963623047	-928.0093383789065	85.80825805664064	216.0116424560547	-1014.11865234375	42.62191772460938	122.0593795776367	-987.9671020507815	242.0767974853516	224.1648101806641	-988.494567871094	235.6903686523438	223.0972290039063	-949.372741699219	210.587631225586	177.0879669189453	-901.5278930664065	nan	nan	nan	
